<svg xmlns="http://www.w3.org/2000/svg" width="600" height="400" viewBox="0 0 600 400">
  <defs>
    <linearGradient id="bg" x1="0%" y1="0%" x2="100%" y2="100%">
      <stop offset="0%" style="stop-color:#1a1a2e"/>
      <stop offset="100%" style="stop-color:#16213e"/>
    </linearGradient>
    <linearGradient id="accent" x1="0%" y1="0%" x2="100%" y2="0%">
      <stop offset="0%" style="stop-color:#4a90d9"/>
      <stop offset="100%" style="stop-color:#357abd"/>
    </linearGradient>
  </defs>
  <rect width="600" height="400" fill="url(#bg)" rx="12"/>
  <rect x="20" y="20" width="560" height="40" fill="#0d1117" rx="8"/>
  <circle cx="40" cy="40" r="6" fill="#ff5f56"/>
  <circle cx="58" cy="40" r="6" fill="#ffbd2e"/>
  <circle cx="76" cy="40" r="6" fill="#27c93f"/>
  <rect x="20" y="70" width="560" height="310" fill="#0d1117" rx="0 0 8 8" opacity="0.5"/>
  <rect x="40" y="90" width="200" height="12" fill="url(#accent)" rx="6" opacity="0.8"/>
  <rect x="40" y="115" width="350" height="8" fill="#333" rx="4"/>
  <rect x="40" y="130" width="300" height="8" fill="#333" rx="4"/>
  <rect x="40" y="145" width="250" height="8" fill="#333" rx="4"/>
  <rect x="40" y="175" width="120" height="35" fill="url(#accent)" rx="6"/>
  <rect x="170" y="175" width="120" height="35" fill="transparent" stroke="#4a90d9" stroke-width="1.5" rx="6"/>
  <rect x="40" y="230" width="160" height="120" fill="#1a1a2e" rx="8" stroke="#333" stroke-width="1"/>
  <rect x="210" y="230" width="160" height="120" fill="#1a1a2e" rx="8" stroke="#333" stroke-width="1"/>
  <rect x="380" y="230" width="160" height="120" fill="#1a1a2e" rx="8" stroke="#333" stroke-width="1"/>
  <text x="120" y="295" font-family="Arial,sans-serif" font-size="11" fill="#666" text-anchor="middle">Metodologia</text>
  <text x="290" y="295" font-family="Arial,sans-serif" font-size="11" fill="#666" text-anchor="middle">Infraestrutura</text>
  <text x="460" y="295" font-family="Arial,sans-serif" font-size="11" fill="#666" text-anchor="middle">Depoimentos</text>
</svg>