<svg xmlns="http://www.w3.org/2000/svg" width="600" height="400" viewBox="0 0 600 400">
  <defs>
    <linearGradient id="bg" x1="0%" y1="0%" x2="100%" y2="100%">
      <stop offset="0%" style="stop-color:#1a1a2e"/>
      <stop offset="100%" style="stop-color:#2e1a1a"/>
    </linearGradient>
    <linearGradient id="accent" x1="0%" y1="0%" x2="100%" y2="0%">
      <stop offset="0%" style="stop-color:#ff6b35"/>
      <stop offset="100%" style="stop-color:#e55a2b"/>
    </linearGradient>
  </defs>
  <rect width="600" height="400" fill="url(#bg)" rx="12"/>
  <rect x="20" y="20" width="560" height="40" fill="#0d1117" rx="8"/>
  <circle cx="40" cy="40" r="6" fill="#ff5f56"/>
  <circle cx="58" cy="40" r="6" fill="#ffbd2e"/>
  <circle cx="76" cy="40" r="6" fill="#27c93f"/>
  <rect x="20" y="70" width="560" height="310" fill="#0d1117" rx="0 0 8 8" opacity="0.5"/>
  <rect x="40" y="90" width="190" height="12" fill="url(#accent)" rx="6" opacity="0.8"/>
  <rect x="40" y="115" width="310" height="8" fill="#333" rx="4"/>
  <rect x="40" y="130" width="270" height="8" fill="#333" rx="4"/>
  <rect x="40" y="175" width="120" height="35" fill="url(#accent)" rx="6"/>
  <rect x="170" y="175" width="120" height="35" fill="transparent" stroke="#ff6b35" stroke-width="1.5" rx="6"/>
  <rect x="40" y="225" width="165" height="110" fill="#2e1a1a" rx="8" stroke="#ff6b35" stroke-width="0.5"/>
  <rect x="217" y="225" width="165" height="110" fill="#2e1a1a" rx="8" stroke="#ff6b35" stroke-width="0.5"/>
  <rect x="394" y="225" width="165" height="110" fill="#2e1a1a" rx="8" stroke="#ff6b35" stroke-width="0.5"/>
  <text x="122" y="275" font-family="Arial,sans-serif" font-size="22" fill="#ff6b35" text-anchor="middle">🍽️</text>
  <text x="122" y="300" font-family="Arial,sans-serif" font-size="9" fill="#888" text-anchor="middle">Entradas</text>
  <text x="300" y="275" font-family="Arial,sans-serif" font-size="22" fill="#ff6b35" text-anchor="middle">🥩</text>
  <text x="300" y="300" font-family="Arial,sans-serif" font-size="9" fill="#888" text-anchor="middle">Pratos Principais</text>
  <text x="477" y="275" font-family="Arial,sans-serif" font-size="22" fill="#ff6b35" text-anchor="middle">🍰</text>
  <text x="477" y="300" font-family="Arial,sans-serif" font-size="9" fill="#888" text-anchor="middle">Sobremesas</text>
</svg>